# xmcd
# Track frame offsets:
# 182
# 18290
# 28495
# 50432
# 58262
# 73967
# 97730
# 113882
# 130155
# 165915
# 182295
# 196270
# 208560
# 215792
# 229897
# 246215
#
# Disc length: 3451 seconds
# Revision: 0
# Processed by: cddbd v1.4PL0 Copyright (c) Steve Scherf et al.
# Submitted via: VisiTrax 2.9.5.180 - For more info visit www.synapsa.com
#
DISCID=e30d7910
DTITLE=Willie Nelson - Always On My Mind..LIVE
DYEAR=1900
DGENRE=Other
TTITLE0=The Red Headed Stanger
TTITLE1=On The Road Again
TTITLE2=City Of New Orleans
TTITLE3=If You've Got The Money Honey I've Got The Time
TTITLE4=Whiskey River
TTITLE5='till I Gain Control Again
TTITLE6=You Were Always On My Mind
TTITLE7=Stardust
TTITLE8=Medley: Funny How Time Slips Away/ Crazy /night Life
TTITLE9=Georgia On My Mind
TTITLE10=Blue Eyes Crying In The Rain
TTITLE11=Seven Spanish Angels
TTITLE12=Luchenbach, Texas
TTITLE13=Good Hearted Woman
TTITLE14=Angel Flying Too Close To The Ground
TTITLE15=To All The Girls I've Loved Before
EXTD=ID3G:  12
EXTT0=
EXTT1=
EXTT2=
EXTT3=
EXTT4=
EXTT5=
EXTT6=
EXTT7=
EXTT8=
EXTT9=
EXTT10=
EXTT11=
EXTT12=
EXTT13=
EXTT14=
EXTT15=
PLAYORDER=
